<?xml version="1.0" encoding="utf-8"?>
<!-- Generator: Adobe Illustrator 24.0.0, SVG Export Plug-In . SVG Version: 6.00 Build 0)  -->
<svg version="1.1" id="Layer_1" xmlns="http://www.w3.org/2000/svg" xmlns:xlink="http://www.w3.org/1999/xlink" x="0px" y="0px"
	 viewBox="0 0 256 128" style="enable-background:new 0 0 256 128;" xml:space="preserve">
<style type="text/css">
	.st0{fill-rule:evenodd;clip-rule:evenodd;fill:#EB008B;}
</style>
<path class="st0" d="M192.7,46.7c7-8.5,22.6-11.3,32.6-5.2c3.2,1.9,5.7,4.5,8.3,7.1L243.7,38c-2.5-3.7-7.3-8-12.9-11.2
	c-12-6.8-28.4-7-40.1,0.9c-2.7,1.8-5.1,4-7.2,6.4C173,46.5,172.7,66,184.2,78c6.9,7.2,15.3,10.5,25.1,10.5c3.3-0.3,5.7-0.7,8.8-1.8
	c-5.9,1-12,0.6-17.2-1.7C185.6,78.3,182.6,59.1,192.7,46.7L192.7,46.7z M139.5,66l35.6,35.3h-26.3l-28.9-29.2v29.2H99V28h20.9v31.9
	L148.6,28h25L139.5,66L139.5,66z M173.7,39.4c-6.1,14.9-3.7,29.7,9.5,41.6c12.1,11,32,12.5,45.2,2.7c3-2.2,5.5-5.1,8.4-8.1
	c1,0.6,9.4,8.9,9.4,9.5c-3.5,4.7-7.8,9.2-12.9,12.8c-13.2,9.3-30,9.9-44.4,2.6C167.8,89.8,157.3,58.7,173.7,39.4L173.7,39.4z
	 M39.1,73.4h27.1v27.9h21V28l0,0h-21v27.4H39.1V28H18.2v73.3h20.9V73.4z"/>
</svg>
